<svg width="51" height="55" viewBox="0 0 51 55" fill="none" xmlns="http://www.w3.org/2000/svg">
<g filter="url(#filter0_d_218_1579)">
<path fill-rule="evenodd" clip-rule="evenodd" d="M44.6072 19.1624H43.1833V19.3802H41.1563V19.5309H40.3187L39.9837 17.4872H37.9399L37.8394 12.3108H40.3857L40.8045 12.026L40.771 10.8701L46.4499 10.6691C46.4499 10.8031 46.4499 10.7529 46.4499 10.8366C46.4499 10.9539 46.4164 11.0879 46.4164 11.1717C46.4164 11.2554 46.4834 11.4062 46.4667 11.49C46.4332 11.6072 46.3997 11.691 46.5169 11.7245C46.5839 11.7412 46.785 11.7412 46.7515 11.8418C46.718 11.9925 46.7347 12.0093 46.6342 12.1098C46.5839 12.16 46.6677 12.2773 46.6174 12.3443C46.5672 12.3946 46.4332 12.4448 46.5169 12.5286C46.7347 12.7464 46.3829 12.5286 46.3494 12.6291C46.3494 12.6626 46.2154 12.8469 46.2322 12.8636C46.2992 12.9306 46.3829 12.9641 46.4499 13.0311C46.4834 13.0647 46.6007 13.2154 46.4667 13.2657C46.3494 13.3327 46.2824 13.3327 46.3494 13.4667C46.3662 13.5002 46.4499 13.6677 46.5002 13.6677C46.6174 13.6677 46.7347 13.651 46.785 13.7515C46.785 13.7682 46.9357 13.986 46.8017 13.986C46.718 13.986 46.5337 13.9525 46.5002 14.0363C46.4667 14.0865 46.4499 14.2205 46.3997 14.3211C46.3494 14.4216 46.2824 14.5053 46.2322 14.6058C46.1819 14.7063 46.2154 14.8069 46.1819 14.9409C46.1651 15.0581 46.1651 15.1754 46.1651 15.2927C46.1651 15.4267 46.1986 15.5272 46.2322 15.6612C46.2489 15.7282 46.3159 15.8287 46.2824 15.9627C46.2322 16.147 46.1316 16.1303 46.0479 16.2978C45.9976 16.3648 46.0144 16.5323 45.8971 16.5826C45.6961 16.6831 45.7966 16.6998 45.7631 16.9009C45.7296 16.9846 45.7128 17.1186 45.7128 17.2527C45.7128 17.4369 45.5788 17.4369 45.5621 17.5207C45.5621 17.5374 45.5621 17.8055 45.5118 17.8222C45.4113 17.8725 45.3946 17.9395 45.3108 18.04C45.227 18.1238 45.1935 18.174 45.1433 18.2745C45.1098 18.3415 45.0595 18.4923 45.0093 18.5426C44.959 18.6096 44.892 18.7101 44.825 18.7771C44.758 18.8441 44.758 18.9278 44.691 19.0451C44.6575 19.0786 44.6407 19.1121 44.6072 19.1624Z" fill="#ED2488"/>
<path fill-rule="evenodd" clip-rule="evenodd" d="M47.0697 13.9858C47.0697 13.8685 47.321 13.902 47.3545 13.8015C47.3713 13.7178 47.2037 13.7178 47.1367 13.6508C47.053 13.567 47.0362 13.5167 47.0697 13.4162C47.0865 13.3157 47.1367 13.2487 47.2372 13.2152C47.321 13.1985 47.3042 13.0477 47.3042 12.9639C47.3042 12.8299 47.2875 12.7629 47.3377 12.6791C47.3713 12.5786 47.4215 12.4614 47.4215 12.3441C47.4215 12.2603 47.6058 12.1598 47.6393 12.1263C47.7398 12.0258 47.7901 12.0258 47.7901 11.8415C47.7901 11.7243 47.5388 11.8415 47.4215 11.8415C47.3042 11.8415 47.1702 11.8415 47.0865 11.808C46.9357 11.7745 46.9692 11.8415 46.9692 12.0091C46.9692 12.1263 46.8184 12.1431 47.0362 12.1431C47.1367 12.1431 47.3042 11.9588 47.254 12.1766C47.2205 12.3274 47.1702 12.2771 47.0697 12.3609C46.986 12.4279 47.0027 12.4949 47.0027 12.5954C47.0027 12.7126 47.0697 12.7964 47.0697 12.9137C47.0697 13.0142 46.9189 13.0309 46.8687 13.0812C46.8184 13.1315 46.9022 13.2822 46.9022 13.3827C46.9022 13.3995 46.9022 13.433 46.9022 13.5503C46.9022 13.701 46.9357 13.7345 47.0362 13.768C47.12 13.7848 47.053 13.9188 47.0697 13.9858Z" fill="#ED2488"/>
<path fill-rule="evenodd" clip-rule="evenodd" d="M43.1633 25.605C43.232 25.6736 43.232 25.8796 43.232 26.0169C43.232 26.1542 43.232 26.2915 43.232 26.3602L42.9574 26.4975C42.8887 26.5661 42.8887 26.7034 42.9574 26.7721C43.026 26.9094 43.0947 26.9781 43.1633 26.9781C43.3006 27.0467 43.232 27.184 43.232 27.3214C43.232 27.4587 43.1633 27.5273 43.3006 27.596C43.3693 27.6646 43.3006 27.8706 43.3006 27.9392C43.3006 27.9392 43.232 28.0079 43.232 28.2139C43.232 28.3512 43.3693 28.4885 43.4379 28.6258C43.5066 28.6945 43.3693 28.6945 43.5752 28.8318C43.7812 28.9004 43.8499 28.9691 44.0558 28.9691C44.1245 28.9691 44.2618 28.7631 44.3305 28.6945C44.3991 28.6258 44.3991 28.5572 44.5364 28.4198C44.6051 28.3512 44.6737 28.2825 44.7424 28.2139C44.8797 28.0766 45.017 28.0079 45.0857 27.8706C45.1543 27.8019 45.223 27.8019 45.2916 27.6646C45.3603 27.5273 45.4289 27.5273 45.4976 27.39C45.4976 27.2527 45.6349 27.1154 45.6349 26.9781C45.7036 26.9094 45.7722 26.7721 45.8409 26.7035C45.8409 26.5661 45.9095 26.4288 45.9782 26.2915C45.9782 26.2229 46.1842 26.0856 46.1842 26.0169C46.3215 25.9482 46.3901 25.8796 46.4588 25.8109C46.5274 25.7423 46.5961 25.605 46.5961 25.5363C46.6648 25.4676 46.7334 25.399 46.7334 25.2617C46.7334 25.1244 46.7334 24.9871 46.8021 24.8497C46.8021 24.7811 47.008 24.6438 47.0767 24.5751C47.214 24.5065 47.214 24.3692 47.2827 24.3005C47.3513 24.1632 47.42 24.1632 47.4886 24.0259C47.4886 23.9572 47.5573 23.8886 47.6259 23.7512C47.6946 23.6826 47.6259 23.4766 47.6259 23.408C47.6259 23.2707 47.7632 23.202 47.8319 23.1333C47.8319 23.1333 47.9692 22.9274 47.9692 22.8587C48.0379 22.7901 47.9692 22.5841 47.9692 22.5154C47.9692 22.3781 48.0379 22.3095 47.9006 22.2408C47.8319 22.1722 47.6946 22.3095 47.6946 22.3781C47.5573 22.4468 47.4886 22.4468 47.42 22.5154C47.2827 22.6528 47.214 22.5841 47.1453 22.7901C47.0767 22.8587 47.008 22.9274 46.9394 22.996C46.8707 23.1333 46.8707 23.1334 46.7334 23.202C46.6648 23.202 46.4588 23.1333 46.3901 23.1333C46.2528 23.1333 46.1842 23.202 46.0469 23.1333C45.9095 23.1333 45.9095 22.996 45.7722 23.0647C45.6349 23.1333 45.6349 23.1333 45.4976 22.996C45.4289 22.9274 45.223 22.996 45.1543 22.996C45.017 23.0647 44.9484 23.0647 44.8797 23.0647C44.7424 23.1333 44.6737 23.202 44.6051 23.2707C44.4678 23.3393 44.3991 23.4766 44.3991 23.5453C44.3991 23.6826 44.3991 23.8199 44.3305 23.8886C44.2618 24.0259 44.2618 24.0259 44.1931 24.1632C44.1245 24.2318 44.0558 24.3691 44.0558 24.4378C43.9872 24.5065 43.9872 24.5751 43.9185 24.7124C43.9185 24.7811 43.7812 24.8497 43.7812 24.9184C43.7126 25.0557 43.6439 25.1244 43.6439 25.193C43.6439 25.2617 43.5066 25.3303 43.4379 25.399C43.3006 25.5363 43.3006 25.3303 43.1633 25.605Z" fill="#ED2488"/>
<path fill-rule="evenodd" clip-rule="evenodd" d="M38.7695 26.2227C38.7008 26.36 38.6322 26.36 38.6322 26.4973C38.6322 26.566 38.4262 26.4973 38.2889 26.566C38.2202 26.6347 38.1516 26.7033 38.0829 26.8406C38.0829 26.9779 38.0829 27.0466 37.9456 27.1152C37.9456 27.1839 37.9456 27.1839 37.9456 27.2526C37.9456 27.2526 37.9456 27.3212 37.8769 27.3212C37.8769 27.4585 37.8083 27.5272 37.7396 27.5958C37.671 27.6645 37.671 27.7331 37.6023 27.8705C37.6023 27.9391 37.5337 28.0078 37.5337 28.1451C37.465 28.2824 37.465 28.351 37.465 28.4883C37.3964 28.6257 37.3277 28.6257 37.259 28.763C37.259 28.8316 37.1217 28.9689 37.1217 29.0376C37.0531 29.1749 36.9844 29.2436 36.9158 29.3809C36.8471 29.4495 36.7785 29.5182 36.7098 29.6555C36.7098 29.7928 36.5725 29.9301 36.5038 30.0674C36.4352 30.1361 36.3665 30.2734 36.2979 30.4107C36.2979 30.548 36.1605 30.6853 36.1605 30.754C36.0919 30.8227 36.0919 30.96 36.0233 31.0973C35.9546 31.2346 35.9546 31.3032 35.8859 31.4406C35.8173 31.5779 35.8173 31.6465 35.8173 31.7838C35.8173 31.8525 35.7486 32.0585 35.7486 32.1271C35.7486 32.1958 35.68 32.2644 35.68 32.4017C35.6113 32.539 35.68 32.6077 35.6113 32.745C35.5427 32.8137 35.5427 32.951 35.5427 33.0883C35.5427 33.2256 35.5427 33.2943 35.5427 33.4316C35.5427 33.5689 35.5427 33.7062 35.5427 33.8435C35.6113 33.9122 35.5427 34.1181 35.5427 34.2554C35.5427 34.3241 35.68 34.4614 35.7486 34.5301C35.7486 34.6674 35.7486 34.736 35.8859 34.8047C35.9546 34.8733 36.0919 34.942 36.1605 35.0106C36.2292 35.1479 36.3665 35.2166 36.4352 35.2853C36.5038 35.4226 36.5038 35.4912 36.5038 35.6286C36.5038 35.7659 36.4352 35.9032 36.4352 36.0405C36.4352 36.1091 36.4352 36.2465 36.3665 36.3151C36.3665 36.4524 36.3665 36.5211 36.2979 36.6584C36.2979 36.7271 36.2292 36.8644 36.2292 36.933C36.2292 36.933 36.0233 37.0703 36.0233 37.139C35.9546 37.2076 35.8859 37.2763 35.8859 37.345C35.8173 37.4823 35.7486 37.4823 35.7486 37.6196C35.7486 37.8255 35.8173 37.8255 35.8859 37.8942C35.8859 37.9628 35.8173 38.2375 35.8173 38.2375C35.8173 38.3061 35.6113 38.2375 35.5427 38.1688C35.474 38.1002 35.4054 38.0315 35.4054 37.9628C35.4054 37.8255 35.4054 37.6882 35.4054 37.6196C35.4054 37.4823 35.474 37.4136 35.5427 37.345C35.6113 37.2076 35.68 37.2076 35.7486 37.0703C35.7486 36.933 35.8173 36.933 35.8859 36.8644C36.0232 36.727 36.0233 36.7271 36.0919 36.6584C36.1606 36.5211 36.0919 36.3838 36.0919 36.2465C36.0919 36.1778 36.0919 36.0405 36.0919 35.9032C36.0919 35.7659 36.0919 35.6972 36.0919 35.5599C36.0919 35.4226 36.0233 35.3539 36.0233 35.2853C35.9546 35.148 35.8173 35.148 35.7486 35.0793C35.5427 35.0793 35.68 35.2166 35.68 35.2853C35.68 35.4226 35.7486 35.4912 35.8173 35.5599C35.8173 35.6286 35.8173 35.8345 35.8173 35.9032C35.8173 36.0405 35.8173 36.1778 35.8173 36.2465C35.8173 36.3838 35.8173 36.4524 35.68 36.4524C35.6113 36.4524 35.5427 36.727 35.5427 36.7957C35.5427 36.7957 35.4053 37.0703 35.3367 37.0703C35.3367 37.139 35.268 37.2076 35.1994 37.345C35.1307 37.4823 35.0621 37.4823 34.9934 37.5509C34.9934 37.6196 34.9248 37.6196 34.8561 37.6196L34.9248 31.5779H32.1785L32.1099 29.5868L26.892 29.6555L25.7936 24.4377L27.5099 23.0646L29.8442 24.9183L32.5218 24.8496L33.2084 26.1541L38.7695 26.2227Z" fill="#ED2488"/>
<path fill-rule="evenodd" clip-rule="evenodd" d="M34.8561 37.6196C34.7874 37.6196 34.7192 37.6883 34.6505 37.6883C34.5819 37.6883 34.5819 37.7569 34.5132 37.8256C34.5132 37.8256 34.4446 37.8943 34.3759 37.9629C34.3073 38.0316 34.3073 38.0316 34.2386 37.8943C34.2386 37.8256 34.2386 37.8256 34.1699 37.8256C34.1013 37.8256 34.0326 37.9629 33.964 37.9629C33.8953 37.9629 33.8953 38.0316 33.8267 38.1002C33.758 38.1002 33.758 38.1689 33.6894 38.2375C33.6894 38.3062 33.6894 38.3748 33.6894 38.4435C33.6207 38.4435 33.552 38.5122 33.552 38.5808C33.4834 38.6495 33.4834 38.7181 33.4147 38.7868C33.4147 38.8554 33.4147 38.9241 33.3461 38.9928C33.3461 39.0614 33.2774 39.1301 33.2774 39.1987C33.2088 39.2674 33.2088 39.2674 33.1401 39.336C33.0715 39.4047 33.0715 39.4733 33.0715 39.542C33.0715 39.6106 33.0028 39.6107 32.9342 39.6107C32.8655 39.6793 32.8655 39.748 32.8655 39.8166C32.8655 39.8853 32.8655 39.9539 32.8655 40.0226C32.7968 40.0912 32.7968 40.1599 32.7968 40.1599C32.7968 40.2285 32.7282 40.2972 32.7282 40.2972C32.7282 40.4345 32.6595 40.5032 32.6595 40.5718C32.6595 40.6405 32.6595 40.7092 32.6595 40.7778C32.6595 40.9151 32.6595 40.9151 32.5909 40.9838C32.5909 41.0524 32.5909 41.1211 32.5909 41.1897C32.5222 41.2584 32.5222 41.327 32.4536 41.327C32.4536 41.4644 32.3849 41.4644 32.3163 41.327C32.3163 41.2584 32.3162 41.1897 32.3849 41.1897C32.3849 41.1211 32.3849 40.9838 32.3849 40.9838C32.4536 40.9151 32.4536 40.8465 32.4536 40.7778C32.5222 40.7092 32.4536 40.5718 32.4536 40.5718C32.4536 40.4345 32.5222 40.4345 32.5909 40.3659C32.5909 40.2972 32.6595 40.2972 32.6595 40.2285C32.6595 40.0912 32.6595 40.0226 32.6595 39.9539L32.4536 40.0913C32.3849 40.1599 32.3849 40.1599 32.3163 40.2285C32.2476 40.2285 32.1789 40.2285 32.1103 40.2285C32.0416 40.2285 31.973 40.2285 31.8357 40.2285C31.8357 40.2285 31.767 40.2972 31.6983 40.2972C31.6297 40.3659 31.561 40.3659 31.4924 40.4345C31.4237 40.4345 31.3551 40.4345 31.2864 40.4345C31.2864 40.4345 31.1491 40.5718 31.1491 40.6405C31.0804 40.7091 31.0804 40.7091 31.0804 40.8464C31.0804 40.9151 31.1491 40.9838 31.1491 41.0524C31.1491 41.1211 31.1491 41.1897 31.1491 41.2584C31.0804 41.327 31.0118 41.327 31.0118 41.3957C31.0118 41.4644 30.9431 41.4644 30.9431 41.6017C30.9431 41.6703 30.9431 41.6703 31.0118 41.739C31.0118 41.8076 31.1491 41.8763 31.2178 41.9449C31.2864 42.0136 31.2864 42.0136 31.4237 42.0136C31.4237 42.0136 31.4237 42.1509 31.4924 42.1509C31.6297 42.1509 31.6297 42.2196 31.6297 42.2882C31.6984 42.2882 31.6297 42.4255 31.6297 42.4942C31.6297 42.5629 31.8357 42.6315 31.9043 42.7002C31.973 42.7002 31.973 42.6315 31.973 42.5628C32.0416 42.4942 32.1103 42.4255 32.1789 42.4255C32.2476 42.3569 32.1103 42.2882 32.2476 42.2882C32.3163 42.2882 32.3849 42.3569 32.3849 42.4255C32.4536 42.4942 32.3849 42.5628 32.3849 42.6315C32.3162 42.7002 32.3163 42.7002 32.2476 42.7688C32.2476 42.8375 32.4536 42.9061 32.4536 42.9748L32.3849 43.1808C32.3162 43.2494 32.3163 43.3867 32.3163 43.4554C32.2476 43.524 32.3162 43.5927 32.3849 43.5927C32.5222 43.5927 32.5222 43.5927 32.5909 43.524C32.6595 43.524 32.7282 43.3867 32.7282 43.3867C32.8655 43.3181 32.8655 43.3867 32.9342 43.3181C32.9342 43.1807 32.9342 43.1121 32.9342 43.0434C32.9342 42.9748 33.0028 42.9061 33.0028 42.8375C33.0028 42.7688 33.0715 42.7002 33.1401 42.6315C33.1401 42.5628 33.2088 42.5629 33.2088 42.4942C33.3461 42.4942 33.4147 42.4942 33.4834 42.4942C33.552 42.5629 33.6894 42.4942 33.758 42.4942C33.8267 42.4942 33.8953 42.4942 33.964 42.4942C34.0326 42.4255 34.1013 42.4255 34.1013 42.3569C34.1699 42.2882 34.2386 42.2882 34.3073 42.2196C34.3759 42.1509 34.5132 42.2882 34.5132 42.2882C34.5819 42.4255 34.5819 42.4942 34.6505 42.5628C34.7192 42.5628 34.6505 42.7002 34.7192 42.7688C34.7879 42.8375 34.9252 42.7688 34.9938 42.7688C34.9938 42.7002 35.0625 42.6315 35.1311 42.6315C35.1998 42.5628 35.2684 42.5628 35.3371 42.5628C35.3371 42.4942 35.3371 42.3569 35.3371 42.2882C35.3371 42.2196 35.3371 42.1509 35.3371 42.0823C35.3371 42.0823 35.4057 42.0823 35.4744 42.0823C35.6804 42.0136 35.6804 42.0823 35.749 42.2882C35.749 42.3569 35.8863 42.4255 35.8863 42.5628C35.955 42.7688 36.0923 42.4942 36.0923 42.3569C36.0923 42.2196 36.0237 42.1509 35.955 42.0823C35.8863 41.8763 36.161 41.8763 36.2296 41.8763C36.2983 41.9449 36.2983 42.1509 36.3669 42.2196C36.5729 42.4255 36.6416 42.0823 36.7102 42.0136C36.7102 41.8076 36.7102 41.6703 36.9162 41.8763C36.9848 42.0136 36.8475 42.2882 36.8475 42.3569C36.7789 42.4942 36.7102 42.2882 36.7102 42.6315C36.7102 42.8375 36.6416 42.7688 36.4356 42.7688C36.3669 42.7688 36.161 42.9748 36.0923 43.0434C36.0237 43.1121 35.8863 43.1807 35.8177 43.3181C35.749 43.524 35.8177 43.524 36.0237 43.524C36.0923 43.524 36.2296 43.3867 36.2983 43.3181C36.4356 43.1807 36.6416 43.2494 36.6416 43.3867C36.6416 43.5927 36.5729 43.5927 36.5042 43.7987C36.5042 43.8673 36.2296 44.0046 36.2296 44.0046C36.0923 44.1419 36.0237 44.1419 35.8863 44.2106C35.6804 44.4166 35.749 44.4166 35.4744 44.4166C35.3371 44.4166 35.3371 44.5539 35.3371 44.7598C35.2684 44.9658 35.5431 45.0345 35.1998 45.0345C35.1311 45.0345 35.0625 45.2404 35.0625 45.3777C34.9938 45.4464 34.8565 45.515 34.7192 45.515C34.5819 45.4464 34.5819 45.2404 34.5819 45.1031C34.5819 44.8971 34.5819 44.8971 34.3759 44.9658C34.2386 44.9658 34.1013 45.0345 34.0326 45.1031C33.8953 45.2404 33.8267 45.2404 33.758 45.3777C33.6207 45.4464 33.552 45.5837 33.552 45.721C33.4834 45.8583 33.1401 45.721 33.0715 45.721C32.8655 45.721 32.7282 45.721 32.7282 45.927C32.7282 46.133 32.7282 46.2016 32.5909 46.3389C32.4536 46.4762 32.4536 46.5449 32.6595 46.6135C32.7282 46.6135 32.7968 46.8882 32.7968 46.9568C32.8655 47.0941 32.5909 47.0255 32.4536 47.0255C32.3162 47.0255 32.1103 47.2314 32.3849 47.3001C32.4536 47.3688 32.5909 47.5747 32.6595 47.6434V47.918C32.7968 48.124 32.5222 48.2613 32.5222 48.3299C32.3849 48.3299 32.3849 47.9867 32.1789 48.3299C32.1103 48.4672 32.1103 48.4672 32.1103 48.6732C32.1103 48.8792 32.2476 48.9478 32.3849 49.0165C32.4536 49.0852 32.5222 49.2911 32.5909 49.3598C32.7282 49.4284 32.7968 49.4284 33.0028 49.4284C33.2088 49.4284 33.2774 49.4971 33.3461 49.3598C33.4147 49.1538 33.4147 49.0165 33.4147 48.9478C33.4834 48.8105 33.5521 48.6732 33.6894 48.6046C33.758 48.5359 33.8267 48.3986 33.8267 48.3299C33.8953 48.124 33.8953 47.9866 33.8953 47.8493C33.964 47.712 34.1013 47.6434 34.1699 47.5061C34.3073 47.4374 34.3759 47.3688 34.4446 47.3001C34.5819 47.1628 34.5819 47.0941 34.7192 47.0255C34.8565 46.9568 34.9252 46.8882 35.0625 46.8195C35.1998 46.7508 35.2685 46.6822 35.4058 46.6135C35.4744 46.5449 35.6117 46.8195 35.749 46.8195C35.749 46.8195 35.8177 46.6135 36.0237 46.6135C36.2296 46.6135 36.2296 46.7509 36.2296 46.9568C36.2296 47.0941 36.0923 47.1628 36.0237 47.2314C35.8177 47.3001 35.8864 47.3001 35.749 47.5061C35.749 47.6434 35.6117 47.7807 35.5431 47.8493C35.5431 47.918 35.1311 47.918 35.1311 47.918C34.9252 47.918 34.7879 47.918 34.7192 47.9867C34.5819 48.0553 34.9938 48.0553 35.0625 48.1926C35.1311 48.2613 35.1311 48.3299 35.1998 48.3299C35.3371 48.3986 34.9938 48.3986 34.8565 48.4672C34.6505 48.5359 34.7879 48.6732 34.9252 48.7419C34.9938 48.8792 34.9252 49.0165 34.9252 49.0851C34.8565 49.2224 34.8565 49.4284 34.8565 49.4971C34.7878 49.6344 34.8565 49.8404 34.8565 49.9777H24.3522V52.1746L19.7522 51.7627L18.997 49.1538H18.3105V49.7031H17.1433L16.8687 48.4672H16.1135L16.0448 47.5061L16.3195 46.7508H15.4956L14.7404 45.721L14.4658 44.7598H15.8389L15.9075 41.8763L15.3583 41.1211H16.6627L17.418 38.7868H17.8986L18.5165 36.5898H19.0657L18.8597 34.6674L19.6836 31.4406L19.203 30.96H16.8001L22.5671 26.9093L25.8626 24.5064L26.892 29.6555L32.1103 29.6556L32.1785 31.5779L34.9252 31.6466L34.8561 37.6196Z" fill="#ED2488"/>
<path fill-rule="evenodd" clip-rule="evenodd" d="M3 40.8464L16.8001 30.96L19.2714 30.96L19.6836 31.4406L18.8595 34.5987L19.0654 36.5211H18.5162L17.8986 38.7868H17.418L16.6627 41.1211H15.3583L15.9075 41.8763L15.8389 44.7598H14.4658L14.7401 45.7896L15.564 46.8195L16.3195 46.7508L15.9759 47.3687L16.1819 48.3985L3.06866 49.0164L3 40.8464Z" fill="#ED2488"/>
<path fill-rule="evenodd" clip-rule="evenodd" d="M46.3217 10.5693L40.6919 10.7753V5.7634C40.6919 5.7634 40.7606 5.69474 40.8292 5.69474C40.8979 5.62609 40.8979 5.55742 40.9665 5.48876C40.9665 5.42011 41.0352 5.42011 41.0352 5.21414C41.0352 5.14549 41.0352 5.00818 41.0352 4.93952C41.0352 4.80221 40.9665 4.80222 41.0352 4.66491C41.0352 4.66491 41.1725 4.59624 41.2412 4.52759C41.3098 4.45893 41.1038 4.32163 41.1038 4.32163C41.0352 4.32163 40.9665 4.25297 40.8979 4.25297C40.8292 4.18431 40.8292 4.18431 40.7606 4.18431V3.29179C40.6232 3.22314 40.8979 3.22312 40.9665 3.08581C41.0352 2.9485 41.0352 3.01717 41.1725 3.01717C41.2411 3.08583 41.1725 3.15448 41.3785 3.22313C41.4471 3.22313 41.5844 3.22313 41.6531 3.22313C41.7217 3.29179 41.7217 3.36045 41.9277 3.36045C42.065 3.36045 42.2023 3.36045 42.3396 3.36045C42.4769 3.36045 42.477 3.49775 42.5456 3.56641C42.6143 3.70372 42.6829 3.70371 42.7516 3.77237C42.8202 3.84102 42.8889 3.90969 42.8889 3.97835C43.0262 4.047 43.0948 4.11565 43.1635 4.18431C43.2322 4.25296 43.3008 4.39027 43.3695 4.45893C43.4381 4.59624 43.5068 4.59625 43.5754 4.73356C43.6441 4.80222 43.6441 4.87087 43.7127 4.93952C43.7127 5.07684 43.7814 5.14549 43.8501 5.21414C43.8501 5.35145 43.9187 5.48877 43.9874 5.55742C44.056 5.62608 44.1933 5.76338 44.1933 5.83204C44.3307 5.9007 44.3993 5.96937 44.3993 6.10668C44.3993 6.17533 44.468 6.24399 44.5366 6.3813C44.5366 6.44995 44.6053 6.5186 44.6053 6.58726C44.6739 6.79322 44.6739 6.65591 44.7426 6.5186C44.8112 6.44994 44.8112 6.3813 44.8799 6.3813C44.9486 6.24399 44.8799 6.17533 45.0859 6.31264C45.1545 6.31264 45.1545 6.5186 45.0859 6.5186C45.0859 6.65591 45.0172 6.65592 44.9486 6.72458C44.8112 6.72458 44.8799 6.79322 44.8799 6.93053C44.8799 6.99919 44.9486 7.1365 45.0172 7.27381C45.0172 7.34247 45.0172 7.47978 45.0172 7.54843C45.0859 7.68574 45.1545 7.7544 45.1545 7.89171C45.1545 7.96037 45.2232 8.02903 45.2918 8.09769C45.2918 8.235 45.2918 8.30365 45.2918 8.37231C45.2232 8.50962 45.1545 8.57828 45.2918 8.71559C45.2918 8.8529 45.2918 8.92155 45.2918 9.05887C45.2918 9.12752 45.4978 9.12753 45.5665 9.19619C45.6351 9.3335 45.6351 9.40215 45.6351 9.53946C45.6351 9.67678 45.6351 9.74542 45.7724 9.74542C45.9097 9.74542 45.8411 9.53946 45.8411 9.4708C45.8411 9.26484 45.8411 9.19619 45.9097 9.19619C46.047 9.12753 45.9097 8.9902 45.9097 8.92155C45.8411 8.85289 45.8411 8.71558 45.9097 8.64693C45.9097 8.50962 45.9097 8.50962 45.9097 8.37231C45.9784 8.37231 46.253 8.30365 46.3217 8.30365C46.3903 8.30365 46.3903 8.16635 46.3903 8.09769C46.3903 7.96038 46.3903 7.89172 46.3903 7.75441C46.3903 7.68576 46.3903 7.54845 46.3217 7.47979C46.3217 7.41114 46.1844 7.34247 46.1844 7.27381C46.047 7.20516 46.1157 7.06785 46.0471 6.99919C45.9784 6.93054 45.9097 6.99919 45.9097 6.86187C45.8411 6.79322 45.9097 6.72457 45.8411 6.65592C45.7038 6.58726 45.7038 6.51861 45.7724 6.3813C45.8411 6.31264 45.9784 6.5186 45.9784 6.5186C46.0471 6.65591 46.1157 6.72458 46.1844 6.79324C46.253 6.86189 46.3903 6.79324 46.459 6.79324C46.5963 6.79324 46.5276 6.93054 46.5276 7.06785C46.5276 7.06785 46.459 7.06784 46.459 7.20515C46.459 7.27381 46.665 7.34248 46.665 7.41113C46.7336 7.47979 46.7336 7.6171 46.7336 7.68575C46.7336 7.82306 46.7336 7.96037 46.7336 8.02903C46.7336 8.16634 46.6649 8.16633 46.5963 8.23499C46.5276 8.30364 46.459 8.37231 46.459 8.44097C46.3903 8.57828 46.459 8.57827 46.253 8.57827C46.1844 8.57827 46.1844 8.7156 46.1844 8.85291C46.253 8.85291 46.253 8.85289 46.253 8.92155C46.253 8.9902 46.3217 9.05887 46.3217 9.19619C46.3217 9.19619 46.253 9.26483 46.1844 9.33348C46.1844 9.53945 46.253 9.53945 46.1157 9.6081C45.9784 9.74541 46.253 9.74542 46.3217 9.74542C46.3903 9.74542 46.3903 9.88273 46.459 9.95138C46.459 10.02 46.5963 9.88273 46.5276 10.0887C46.5276 10.1574 46.3903 10.226 46.3217 10.226C46.253 10.2947 46.3217 10.5006 46.3217 10.5693Z" fill="#ED2488"/>
<path fill-rule="evenodd" clip-rule="evenodd" d="M44.4684 18.9453C44.3998 19.014 44.3998 19.1513 44.3312 19.2886C44.3312 19.4259 44.2625 19.4946 44.1252 19.6319C44.0565 19.6319 43.8506 19.8379 43.8506 19.9065C43.7819 20.0438 43.7132 20.1811 43.6446 20.3185C43.5759 20.4558 43.5073 20.5244 43.37 20.6617C43.3013 20.799 43.2326 20.799 43.0953 21.005C43.0267 21.0737 43.0267 21.211 42.958 21.3483C42.8894 21.4169 42.8207 21.7602 42.7521 21.7602C42.5461 21.7602 42.4088 21.7602 42.2028 21.8289C42.0655 21.8975 42.0655 22.0349 42.0655 22.2408C42.0655 22.4468 41.9968 22.4468 41.8595 22.5841C41.7222 22.7214 41.7222 22.7901 41.5849 22.9274C41.4476 22.996 41.3789 23.1333 41.3103 23.2707C41.2416 23.408 41.2416 23.5453 41.1043 23.6826C41.0357 23.8199 40.8984 23.8199 40.8297 23.9572C40.6924 24.0945 40.6237 24.1632 40.4864 24.3005C40.4178 24.3005 40.2118 24.4378 40.2118 24.5751C40.1432 24.7811 40.0058 24.7124 39.8685 24.8497C39.7999 24.987 39.6625 24.987 39.5939 25.1243C39.4566 25.193 39.3193 25.2617 39.182 25.3303C39.1133 25.4676 38.976 25.5363 38.9073 25.6736C38.8387 25.7423 38.77 26.1542 38.7014 26.2228L33.2776 26.1542L32.5218 24.8496L29.7761 24.9184L27.5099 23.0646L29.8448 21.0737L32.6597 21.1423V23.408L34.788 23.4766V22.9274H34.994V21.6916L38.8387 21.7602L38.2208 21.2796L39.1133 20.7304L38.5641 20.4558L40.2118 19.3573H40.967V19.22H43.0267V19.014L44.4684 18.9453Z" fill="#ED2488"/>
<path fill-rule="evenodd" clip-rule="evenodd" d="M40.6919 5.7634L40.692 11.9424L40.3487 12.217H37.7398L37.8085 17.3662H39.9368L40.2118 19.3573L38.5637 20.5243L39.1133 20.7304L38.2891 21.2795L38.8387 21.7602L34.9936 21.7601V22.9959H34.7876L34.788 23.4766L32.6597 23.408V21.1423L29.8448 21.0737L30.7369 20.1124L33.8265 14.8259L33.7578 5.55739C33.8265 5.55739 33.8265 5.55739 33.8951 5.55739C34.0324 5.55739 34.2384 5.48873 34.3071 5.55739C34.4444 5.55739 34.3757 5.69471 34.513 5.76337C34.5817 5.76337 34.5817 5.96933 34.5817 6.03799C34.719 6.10664 34.8563 6.10665 34.9936 6.10665C34.9936 6.10665 35.1309 5.90067 35.1996 5.90067C35.2682 5.90067 35.4055 5.90067 35.5429 5.90067C35.6115 5.90067 35.7488 6.03799 35.8175 6.03799C35.8861 6.10664 36.0921 6.03799 36.1607 6.03799C36.2981 6.03799 36.3667 6.10665 36.504 6.10665C36.6413 6.10665 36.8473 6.17529 36.916 6.24395C37.0533 6.24395 37.1219 6.1753 37.1906 6.31261C37.2592 6.31261 37.3966 6.31261 37.4652 6.31261C37.5339 6.31261 37.6712 6.44993 37.7398 6.44993C37.8085 6.51858 38.0145 6.44993 38.0831 6.44993C38.2204 6.38127 38.0145 6.24396 38.2891 6.38127C38.4264 6.44992 38.3577 6.51857 38.5637 6.51857C38.701 6.51857 38.7697 6.58723 38.8383 6.58723C38.907 6.65588 38.9756 6.72454 39.0443 6.58723C39.0443 6.51857 39.1816 6.44992 39.2503 6.38127C39.2503 6.31261 39.3189 6.24394 39.3189 6.17529C39.3876 5.96932 39.5935 6.31261 39.5935 6.31261C39.6622 6.38126 39.7995 6.38127 39.8682 6.44993C40.0055 6.58724 40.0741 6.51858 40.0741 6.44993C40.1428 6.38127 39.9368 6.38126 39.8682 6.31261C39.7309 6.24395 39.9368 6.10665 40.0055 6.10665C40.0741 6.03799 40.2114 6.03798 40.2114 5.90067C40.2114 5.83201 40.0741 5.69471 40.0741 5.69471C40.0055 5.5574 40.0741 5.55739 40.1428 5.48873C40.2114 5.42007 40.2801 5.55739 40.3487 5.55739C40.5547 5.62605 40.5546 5.69474 40.6919 5.7634Z" fill="#ED2488"/>
<path d="M34.8561 37.6196C34.9248 37.6196 34.9934 37.6196 34.9934 37.5509C35.0621 37.4823 35.1307 37.4823 35.1994 37.345C35.268 37.2076 35.3367 37.139 35.3367 37.0703C35.4053 37.0703 35.5427 36.7957 35.5427 36.7957C35.5427 36.727 35.6113 36.4524 35.68 36.4524C35.8173 36.4524 35.8173 36.3838 35.8173 36.2465C35.8173 36.1778 35.8173 36.0405 35.8173 35.9032C35.8173 35.8345 35.8173 35.6286 35.8173 35.5599C35.7486 35.4912 35.68 35.4226 35.68 35.2853C35.68 35.2166 35.5427 35.0793 35.7486 35.0793C35.8173 35.148 35.9546 35.148 36.0233 35.2853C36.0233 35.3539 36.0919 35.4226 36.0919 35.5599C36.0919 35.6972 36.0919 35.7659 36.0919 35.9032C36.0919 36.0405 36.0919 36.1778 36.0919 36.2465C36.0919 36.3838 36.1606 36.5211 36.0919 36.6584C36.0233 36.727 36.0232 36.727 35.8859 36.8644C35.8173 36.933 35.7486 36.933 35.7486 37.0703C35.68 37.2076 35.6113 37.2076 35.5427 37.345C35.474 37.4136 35.4054 37.4823 35.4054 37.6196C35.4054 37.6882 35.4054 37.8255 35.4054 37.9628C35.4054 38.0315 35.474 38.1002 35.5427 38.1688C35.6113 38.2375 35.8173 38.3061 35.8173 38.2375C35.8173 38.2375 35.8859 37.9628 35.8859 37.8942C35.8173 37.8255 35.7486 37.8255 35.7486 37.6196C35.7486 37.4823 35.8173 37.4823 35.8859 37.345C35.8859 37.2763 35.9546 37.2076 36.0233 37.139C36.0233 37.0703 36.2292 36.933 36.2292 36.933C36.2292 36.8644 36.2979 36.727 36.2979 36.6584C36.3665 36.5211 36.3665 36.4524 36.3665 36.3151C36.4352 36.2465 36.4352 36.1091 36.4352 36.0405C36.4352 35.9032 36.5038 35.7659 36.5038 35.6286C36.5038 35.4912 36.5038 35.4226 36.4352 35.2853C36.3665 35.2166 36.2292 35.148 36.1605 35.0106C36.0919 34.942 35.9546 34.8733 35.8859 34.8047C35.7486 34.736 35.7486 34.6674 35.7486 34.5301C35.68 34.4614 35.5427 34.3241 35.5427 34.2554C35.5427 34.1181 35.6113 33.9122 35.5427 33.8435C35.5427 33.7062 35.5427 33.5689 35.5427 33.4316C35.5427 33.2943 35.5427 33.2256 35.5427 33.0883C35.5427 32.951 35.5427 32.8137 35.6113 32.745C35.68 32.6077 35.6113 32.539 35.68 32.4017C35.68 32.2644 35.7486 32.1958 35.7486 32.1271C35.7486 32.0585 35.8173 31.8525 35.8173 31.7838C35.8173 31.6465 35.8173 31.5779 35.8859 31.4406C35.9546 31.3032 35.9546 31.2346 36.0233 31.0973C36.0919 30.96 36.0919 30.8227 36.1605 30.754C36.1605 30.6853 36.2979 30.548 36.2979 30.4107C36.3665 30.2734 36.4352 30.1361 36.5038 30.0674C36.5725 29.9301 36.7098 29.7928 36.7098 29.6555C36.7785 29.5182 36.8471 29.4495 36.9158 29.3809C36.9844 29.2436 37.0531 29.1749 37.1217 29.0376C37.1217 28.9689 37.259 28.8316 37.259 28.763C37.3277 28.6257 37.3964 28.6257 37.465 28.4883C37.465 28.351 37.465 28.2824 37.5337 28.1451C37.5337 28.0078 37.6023 27.9391 37.6023 27.8705C37.671 27.7331 37.671 27.6645 37.7396 27.5958C37.8083 27.5272 37.8769 27.4585 37.8769 27.3212C37.9456 27.3212 37.9456 27.2526 37.9456 27.2526C37.9456 27.1839 37.9456 27.1839 37.9456 27.1152C38.0829 27.0466 38.0829 26.9779 38.0829 26.8406C38.1516 26.7033 38.2202 26.6347 38.2889 26.566C38.4262 26.4973 38.6322 26.566 38.6322 26.4973C38.6322 26.36 38.7008 26.36 38.7695 26.2227L33.2084 26.1541L32.5218 24.8496M34.8561 37.6196L34.9248 31.5779H32.1785M34.8561 37.6196C34.7874 37.6196 34.7192 37.6883 34.6505 37.6883C34.5819 37.6883 34.5819 37.7569 34.5132 37.8256C34.5132 37.8256 34.4446 37.8943 34.3759 37.9629C34.3073 38.0316 34.3073 38.0316 34.2386 37.8943C34.2386 37.8256 34.2386 37.8256 34.1699 37.8256C34.1013 37.8256 34.0326 37.9629 33.964 37.9629C33.8953 37.9629 33.8953 38.0316 33.8267 38.1002C33.758 38.1002 33.758 38.1689 33.6894 38.2375C33.6894 38.3062 33.6894 38.3748 33.6894 38.4435C33.6207 38.4435 33.552 38.5122 33.552 38.5808C33.4834 38.6495 33.4834 38.7181 33.4147 38.7868C33.4147 38.8554 33.4147 38.9241 33.3461 38.9928C33.3461 39.0614 33.2774 39.1301 33.2774 39.1987C33.2088 39.2674 33.2088 39.2674 33.1401 39.336C33.0715 39.4047 33.0715 39.4733 33.0715 39.542C33.0715 39.6106 33.0028 39.6107 32.9342 39.6107C32.8655 39.6793 32.8655 39.748 32.8655 39.8166C32.8655 39.8853 32.8655 39.9539 32.8655 40.0226C32.7968 40.0912 32.7968 40.1599 32.7968 40.1599C32.7968 40.2285 32.7282 40.2972 32.7282 40.2972C32.7282 40.4345 32.6595 40.5032 32.6595 40.5718C32.6595 40.6405 32.6595 40.7092 32.6595 40.7778C32.6595 40.9151 32.6595 40.9151 32.5909 40.9838C32.5909 41.0524 32.5909 41.1211 32.5909 41.1897C32.5222 41.2584 32.5222 41.327 32.4536 41.327C32.4536 41.4644 32.3849 41.4644 32.3163 41.327C32.3163 41.2584 32.3162 41.1897 32.3849 41.1897C32.3849 41.1211 32.3849 40.9838 32.3849 40.9838C32.4536 40.9151 32.4536 40.8465 32.4536 40.7778C32.5222 40.7092 32.4536 40.5718 32.4536 40.5718C32.4536 40.4345 32.5222 40.4345 32.5909 40.3659C32.5909 40.2972 32.6595 40.2972 32.6595 40.2285C32.6595 40.0912 32.6595 40.0226 32.6595 39.9539L32.4536 40.0913C32.3849 40.1599 32.3849 40.1599 32.3163 40.2285C32.2476 40.2285 32.1789 40.2285 32.1103 40.2285C32.0416 40.2285 31.973 40.2285 31.8357 40.2285C31.8357 40.2285 31.767 40.2972 31.6983 40.2972C31.6297 40.3659 31.561 40.3659 31.4924 40.4345C31.4237 40.4345 31.3551 40.4345 31.2864 40.4345C31.2864 40.4345 31.1491 40.5718 31.1491 40.6405C31.0804 40.7091 31.0804 40.7091 31.0804 40.8464C31.0804 40.9151 31.1491 40.9838 31.1491 41.0524C31.1491 41.1211 31.1491 41.1897 31.1491 41.2584C31.0804 41.327 31.0118 41.3271 31.0118 41.3957C31.0118 41.4644 30.9431 41.4644 30.9431 41.6017C30.9431 41.6703 30.9431 41.6703 31.0118 41.739C31.0118 41.8076 31.1491 41.8763 31.2178 41.9449C31.2864 42.0136 31.2864 42.0136 31.4237 42.0136C31.4237 42.0136 31.4237 42.1509 31.4924 42.1509C31.6297 42.1509 31.6297 42.2196 31.6297 42.2882C31.6984 42.2882 31.6297 42.4255 31.6297 42.4942C31.6297 42.5629 31.8357 42.6315 31.9043 42.7002C31.973 42.7002 31.973 42.6315 31.973 42.5628C32.0416 42.4942 32.1103 42.4255 32.1789 42.4255C32.2476 42.3569 32.1103 42.2882 32.2476 42.2882C32.3163 42.2882 32.3849 42.3569 32.3849 42.4255C32.4536 42.4942 32.3849 42.5628 32.3849 42.6315C32.3162 42.7002 32.3163 42.7002 32.2476 42.7688C32.2476 42.8375 32.4536 42.9061 32.4536 42.9748L32.3849 43.1808C32.3162 43.2494 32.3163 43.3867 32.3163 43.4554C32.2476 43.524 32.3162 43.5927 32.3849 43.5927C32.5222 43.5927 32.5222 43.5927 32.5909 43.524C32.6595 43.524 32.7282 43.3867 32.7282 43.3867C32.8655 43.3181 32.8655 43.3867 32.9342 43.3181C32.9342 43.1807 32.9342 43.1121 32.9342 43.0434C32.9342 42.9748 33.0028 42.9061 33.0028 42.8375C33.0028 42.7688 33.0715 42.7002 33.1401 42.6315C33.1401 42.5628 33.2088 42.5629 33.2088 42.4942C33.3461 42.4942 33.4147 42.4942 33.4834 42.4942C33.552 42.5629 33.6894 42.4942 33.758 42.4942C33.8267 42.4942 33.8953 42.4942 33.964 42.4942C34.0326 42.4255 34.1013 42.4255 34.1013 42.3569C34.1699 42.2882 34.2386 42.2882 34.3073 42.2196C34.3759 42.1509 34.5132 42.2882 34.5132 42.2882C34.5819 42.4255 34.5819 42.4942 34.6505 42.5628C34.7192 42.5628 34.6505 42.7002 34.7192 42.7688C34.7879 42.8375 34.9252 42.7688 34.9938 42.7688C34.9938 42.7002 35.0625 42.6315 35.1311 42.6315C35.1998 42.5628 35.2684 42.5628 35.3371 42.5628C35.3371 42.4942 35.3371 42.3569 35.3371 42.2882C35.3371 42.2196 35.3371 42.1509 35.3371 42.0823C35.3371 42.0823 35.4057 42.0823 35.4744 42.0823C35.6804 42.0136 35.6804 42.0823 35.749 42.2882C35.749 42.3569 35.8863 42.4255 35.8863 42.5628C35.955 42.7688 36.0923 42.4942 36.0923 42.3569C36.0923 42.2196 36.0237 42.1509 35.955 42.0823C35.8863 41.8763 36.161 41.8763 36.2296 41.8763C36.2983 41.9449 36.2983 42.1509 36.3669 42.2196C36.5729 42.4255 36.6416 42.0823 36.7102 42.0136C36.7102 41.8076 36.7102 41.6703 36.9162 41.8763C36.9848 42.0136 36.8475 42.2882 36.8475 42.3569C36.7789 42.4942 36.7102 42.2882 36.7102 42.6315C36.7102 42.8375 36.6416 42.7688 36.4356 42.7688C36.3669 42.7688 36.161 42.9748 36.0923 43.0434C36.0237 43.1121 35.8863 43.1807 35.8177 43.3181C35.749 43.524 35.8177 43.524 36.0237 43.524C36.0923 43.524 36.2296 43.3867 36.2983 43.3181C36.4356 43.1807 36.6416 43.2494 36.6416 43.3867C36.6416 43.5927 36.5729 43.5927 36.5042 43.7987C36.5042 43.8673 36.2296 44.0046 36.2296 44.0046C36.0923 44.1419 36.0237 44.1419 35.8863 44.2106C35.6804 44.4166 35.749 44.4166 35.4744 44.4166C35.3371 44.4166 35.3371 44.5539 35.3371 44.7598C35.2684 44.9658 35.5431 45.0345 35.1998 45.0345C35.1311 45.0345 35.0625 45.2404 35.0625 45.3777C34.9938 45.4464 34.8565 45.515 34.7192 45.515C34.5819 45.4464 34.5819 45.2404 34.5819 45.1031C34.5819 44.8971 34.5819 44.8971 34.3759 44.9658C34.2386 44.9658 34.1013 45.0345 34.0326 45.1031C33.8953 45.2404 33.8267 45.2404 33.758 45.3777C33.6207 45.4464 33.552 45.5837 33.552 45.721C33.4834 45.8583 33.1401 45.721 33.0715 45.721C32.8655 45.721 32.7282 45.721 32.7282 45.927C32.7282 46.133 32.7282 46.2016 32.5909 46.3389C32.4536 46.4762 32.4536 46.5449 32.6595 46.6135C32.7282 46.6135 32.7968 46.8882 32.7968 46.9568C32.8655 47.0941 32.5909 47.0255 32.4536 47.0255C32.3162 47.0255 32.1103 47.2314 32.3849 47.3001C32.4536 47.3688 32.5909 47.5747 32.6595 47.6434V47.918C32.7968 48.124 32.5222 48.2613 32.5222 48.3299C32.3849 48.3299 32.3849 47.9867 32.1789 48.3299C32.1103 48.4672 32.1103 48.4672 32.1103 48.6732C32.1103 48.8792 32.2476 48.9478 32.3849 49.0165C32.4536 49.0851 32.5222 49.2911 32.5909 49.3598C32.7282 49.4284 32.7968 49.4284 33.0028 49.4284C33.2088 49.4284 33.2774 49.4971 33.3461 49.3598C33.4147 49.1538 33.4147 49.0165 33.4147 48.9478C33.4834 48.8105 33.5521 48.6732 33.6894 48.6046C33.758 48.5359 33.8267 48.3986 33.8267 48.3299C33.8953 48.124 33.8953 47.9867 33.8953 47.8493C33.964 47.712 34.1013 47.6434 34.1699 47.5061C34.3073 47.4374 34.3759 47.3688 34.4446 47.3001C34.5819 47.1628 34.5819 47.0941 34.7192 47.0255C34.8565 46.9568 34.9252 46.8882 35.0625 46.8195C35.1998 46.7508 35.2685 46.6822 35.4058 46.6135C35.4744 46.5449 35.6117 46.8195 35.749 46.8195C35.749 46.8195 35.8177 46.6135 36.0237 46.6135C36.2296 46.6135 36.2296 46.7509 36.2296 46.9568C36.2296 47.0941 36.0923 47.1628 36.0237 47.2314C35.8177 47.3001 35.8864 47.3001 35.749 47.5061C35.749 47.6434 35.6117 47.7807 35.5431 47.8493C35.5431 47.918 35.1311 47.918 35.1311 47.918C34.9252 47.918 34.7879 47.918 34.7192 47.9867C34.5819 48.0553 34.9938 48.0553 35.0625 48.1926C35.1311 48.2613 35.1311 48.3299 35.1998 48.3299C35.3371 48.3986 34.9938 48.3986 34.8565 48.4672C34.6505 48.5359 34.7879 48.6732 34.9252 48.7419C34.9938 48.8792 34.9252 49.0165 34.9252 49.0851C34.8565 49.2224 34.8565 49.4284 34.8565 49.4971C34.7878 49.6344 34.8565 49.8404 34.8565 49.9777H24.3522V52.1746L19.7522 51.7627L18.997 49.1538H18.3105V49.7031H17.1433L16.8687 48.4672H16.1135L16.0448 47.5061L16.3195 46.7508M34.8561 37.6196L34.9252 31.6466L32.1785 31.5779M32.1785 31.5779L32.1099 29.5868L26.892 29.6555M32.1785 31.5779L32.1103 29.6556L26.892 29.6555M26.892 29.6555L25.7936 24.4377L27.5099 23.0646M26.892 29.6555L25.8626 24.5064L22.5671 26.9093L16.8001 30.96M27.5099 23.0646L29.8442 24.9183L32.5218 24.8496M27.5099 23.0646L29.7761 24.9184L32.5218 24.8496M27.5099 23.0646L29.8448 21.0737M32.5218 24.8496L33.2776 26.1542L38.7014 26.2228C38.77 26.1542 38.8387 25.7423 38.9073 25.6736C38.976 25.5363 39.1133 25.4676 39.182 25.3303C39.3193 25.2617 39.4566 25.193 39.5939 25.1243C39.6625 24.987 39.7999 24.987 39.8685 24.8497C40.0058 24.7124 40.1432 24.7811 40.2118 24.5751C40.2118 24.4378 40.4178 24.3005 40.4864 24.3005C40.6237 24.1632 40.6924 24.0945 40.8297 23.9572C40.8984 23.8199 41.0357 23.8199 41.1043 23.6826C41.2416 23.5453 41.2416 23.408 41.3103 23.2707C41.3789 23.1333 41.4476 22.996 41.5849 22.9274C41.7222 22.7901 41.7222 22.7214 41.8595 22.5841C41.9969 22.4468 42.0655 22.4468 42.0655 22.2408C42.0655 22.0349 42.0655 21.8975 42.2028 21.8289C42.4088 21.7602 42.5461 21.7602 42.7521 21.7602C42.8207 21.7602 42.8894 21.4169 42.958 21.3483C43.0267 21.211 43.0267 21.0737 43.0953 21.005C43.2326 20.799 43.3013 20.799 43.37 20.6617C43.5073 20.5244 43.5759 20.4558 43.6446 20.3185C43.7132 20.1811 43.7819 20.0438 43.8506 19.9065C43.8506 19.8379 44.0565 19.6319 44.1252 19.6319C44.2625 19.4946 44.3312 19.4259 44.3312 19.2886C44.3998 19.1513 44.3998 19.014 44.4684 18.9453L43.0267 19.014V19.22H40.967V19.3573H40.2118M16.3195 46.7508H15.4956L14.7404 45.721L14.4658 44.7598M16.3195 46.7508L15.564 46.8195L14.7401 45.7896L14.4658 44.7598M16.3195 46.7508L15.9759 47.3687L16.1819 48.3985L3.06866 49.0164L3 40.8464L16.8001 30.96M14.4658 44.7598H15.8389L15.9075 41.8763L15.3583 41.1211H16.6627L17.418 38.7868H17.8986M17.8986 38.7868L18.5165 36.5898H19.0657L18.8597 34.6674L19.6836 31.4406M17.8986 38.7868L18.5162 36.5211H19.0654L18.8595 34.5987L19.6836 31.4406M19.6836 31.4406L19.203 30.96H16.8001M19.6836 31.4406L19.2714 30.96L16.8001 30.96M40.6919 5.7634V10.7753L46.3217 10.5693C46.3217 10.5006 46.253 10.2947 46.3217 10.226C46.3903 10.226 46.5276 10.1574 46.5276 10.0887C46.5963 9.88273 46.459 10.02 46.459 9.95138C46.3903 9.88273 46.3903 9.74542 46.3217 9.74542C46.253 9.74542 45.9784 9.74541 46.1157 9.6081C46.253 9.53945 46.1844 9.53945 46.1844 9.33348C46.253 9.26483 46.3217 9.19619 46.3217 9.19619C46.3217 9.05887 46.253 8.9902 46.253 8.92155C46.253 8.85289 46.253 8.85291 46.1844 8.85291C46.1844 8.7156 46.1844 8.57827 46.253 8.57827C46.459 8.57827 46.3903 8.57828 46.459 8.44097C46.459 8.37231 46.5276 8.30364 46.5963 8.23499C46.6649 8.16633 46.7336 8.16634 46.7336 8.02903C46.7336 7.96037 46.7336 7.82306 46.7336 7.68575C46.7336 7.6171 46.7336 7.47979 46.665 7.41113C46.665 7.34248 46.459 7.27381 46.459 7.20515C46.459 7.06784 46.5276 7.06785 46.5276 7.06785C46.5276 6.93054 46.5963 6.79324 46.459 6.79324C46.3903 6.79324 46.253 6.86189 46.1844 6.79324C46.1157 6.72458 46.047 6.65591 45.9784 6.5186C45.9784 6.5186 45.8411 6.31264 45.7724 6.3813C45.7038 6.51861 45.7038 6.58726 45.8411 6.65592C45.9097 6.72457 45.8411 6.79322 45.9097 6.86187C45.9097 6.99919 45.9784 6.93054 46.0471 6.99919C46.1157 7.06785 46.047 7.20516 46.1844 7.27381C46.1844 7.34247 46.3217 7.41114 46.3217 7.47979C46.3903 7.54845 46.3903 7.68576 46.3903 7.75441C46.3903 7.89172 46.3903 7.96038 46.3903 8.09769C46.3903 8.16635 46.3903 8.30365 46.3217 8.30365C46.253 8.30365 45.9784 8.37231 45.9097 8.37231C45.9097 8.50962 45.9097 8.50962 45.9097 8.64693C45.8411 8.71558 45.8411 8.85289 45.9097 8.92155C45.9097 8.9902 46.047 9.12753 45.9097 9.19619C45.8411 9.19619 45.8411 9.26484 45.8411 9.4708C45.8411 9.53946 45.9097 9.74542 45.7724 9.74542C45.6351 9.74542 45.6351 9.67678 45.6351 9.53946C45.6351 9.40215 45.6351 9.3335 45.5665 9.19619C45.4978 9.12753 45.2918 9.12752 45.2918 9.05887C45.2918 8.92155 45.2918 8.8529 45.2918 8.71559C45.1545 8.57828 45.2232 8.50962 45.2918 8.37231C45.2918 8.30365 45.2918 8.235 45.2918 8.09769C45.2232 8.02903 45.1545 7.96037 45.1545 7.89171C45.1545 7.7544 45.0859 7.68574 45.0172 7.54843C45.0172 7.47978 45.0172 7.34247 45.0172 7.27381C44.9486 7.1365 44.8799 6.99919 44.8799 6.93053C44.8799 6.79322 44.8112 6.72458 44.9486 6.72458C45.0172 6.65592 45.0859 6.65591 45.0859 6.5186C45.1545 6.5186 45.1545 6.31264 45.0859 6.31264C44.8799 6.17533 44.9486 6.24399 44.8799 6.3813C44.8112 6.3813 44.8112 6.44994 44.7426 6.5186C44.6739 6.65591 44.6739 6.79322 44.6053 6.58726C44.6053 6.5186 44.5366 6.44995 44.5366 6.3813C44.468 6.24399 44.3993 6.17533 44.3993 6.10668C44.3993 5.96937 44.3307 5.9007 44.1933 5.83204C44.1933 5.76338 44.056 5.62608 43.9874 5.55742C43.9187 5.48877 43.8501 5.35145 43.8501 5.21414C43.7814 5.14549 43.7127 5.07684 43.7127 4.93952C43.6441 4.87087 43.6441 4.80222 43.5754 4.73356C43.5068 4.59625 43.4381 4.59624 43.3695 4.45893C43.3008 4.39027 43.2322 4.25296 43.1635 4.18431C43.0948 4.11565 43.0262 4.047 42.8889 3.97835C42.8889 3.90969 42.8202 3.84102 42.7516 3.77237C42.6829 3.70371 42.6143 3.70372 42.5456 3.56641C42.477 3.49775 42.4769 3.36045 42.3396 3.36045C42.2023 3.36045 42.065 3.36045 41.9277 3.36045C41.7217 3.36045 41.7217 3.29179 41.6531 3.22313C41.5844 3.22313 41.4471 3.22313 41.3785 3.22313C41.1725 3.15448 41.2411 3.08583 41.1725 3.01717C41.0352 3.01717 41.0352 2.9485 40.9665 3.08581C40.8979 3.22312 40.6232 3.22314 40.7606 3.29179V4.18431C40.8292 4.18431 40.8292 4.18431 40.8979 4.25297C40.9665 4.25297 41.0352 4.32163 41.1038 4.32163C41.1038 4.32163 41.3098 4.45893 41.2412 4.52759C41.1725 4.59624 41.0352 4.66491 41.0352 4.66491C40.9665 4.80222 41.0352 4.80221 41.0352 4.93952C41.0352 5.00818 41.0352 5.14549 41.0352 5.21414C41.0352 5.42011 40.9665 5.42011 40.9665 5.48876C40.8979 5.55742 40.8979 5.62609 40.8292 5.69474C40.7606 5.69474 40.6919 5.7634 40.6919 5.7634ZM40.6919 5.7634L40.692 11.9424L40.3487 12.217H37.7398L37.8085 17.3662H39.9368L40.2118 19.3573M40.6919 5.7634C40.5546 5.69474 40.5547 5.62605 40.3487 5.55739C40.2801 5.55739 40.2114 5.42007 40.1428 5.48873C40.0741 5.55739 40.0055 5.5574 40.0741 5.69471C40.0741 5.69471 40.2114 5.83201 40.2114 5.90067C40.2114 6.03798 40.0741 6.03799 40.0055 6.10665C39.9368 6.10665 39.7309 6.24395 39.8682 6.31261C39.9368 6.38126 40.1428 6.38127 40.0741 6.44993C40.0741 6.51858 40.0055 6.58724 39.8682 6.44993C39.7995 6.38127 39.6622 6.38126 39.5935 6.31261C39.5935 6.31261 39.3876 5.96932 39.3189 6.17529C39.3189 6.24394 39.2503 6.31261 39.2503 6.38127C39.1816 6.44992 39.0443 6.51857 39.0443 6.58723C38.9756 6.72454 38.907 6.65588 38.8383 6.58723C38.7697 6.58723 38.701 6.51857 38.5637 6.51857C38.3577 6.51857 38.4264 6.44992 38.2891 6.38127C38.0145 6.24396 38.2204 6.38127 38.0831 6.44993C38.0145 6.44993 37.8085 6.51858 37.7398 6.44993C37.6712 6.44993 37.5339 6.31261 37.4652 6.31261C37.3966 6.31261 37.2592 6.31261 37.1906 6.31261C37.1219 6.1753 37.0533 6.24395 36.916 6.24395C36.8473 6.17529 36.6413 6.10665 36.504 6.10665C36.3667 6.10665 36.2981 6.03799 36.1607 6.03799C36.0921 6.03799 35.8861 6.10664 35.8175 6.03799C35.7488 6.03799 35.6115 5.90067 35.5429 5.90067C35.4055 5.90067 35.2682 5.90067 35.1996 5.90067C35.1309 5.90067 34.9936 6.10665 34.9936 6.10665C34.8563 6.10665 34.719 6.10664 34.5817 6.03799C34.5817 5.96933 34.5817 5.76337 34.513 5.76337C34.3757 5.69471 34.4444 5.55739 34.3071 5.55739C34.2384 5.48873 34.0324 5.55739 33.8951 5.55739C33.8265 5.55739 33.8265 5.55739 33.7578 5.55739L33.8265 14.8259L30.7369 20.1124L29.8448 21.0737M29.8448 21.0737L32.6597 21.1423V23.408L34.788 23.4766M34.788 23.4766V22.9274H34.994V21.6916L38.8387 21.7602M34.788 23.4766L34.7876 22.9959H34.9936V21.7601L38.8387 21.7602M38.8387 21.7602L38.2208 21.2796L39.1133 20.7304M38.8387 21.7602L38.2891 21.2795L39.1133 20.7304M39.1133 20.7304L38.5641 20.4558L40.2118 19.3573M39.1133 20.7304L38.5637 20.5243L40.2118 19.3573M44.6072 19.1624H43.1833V19.3802H41.1563V19.5309H40.3187L39.9837 17.4872H37.9399L37.8394 12.3108H40.3857L40.8045 12.026L40.771 10.8701L46.4499 10.6691C46.4499 10.8031 46.4499 10.7529 46.4499 10.8366C46.4499 10.9539 46.4164 11.0879 46.4164 11.1717C46.4164 11.2554 46.4834 11.4062 46.4667 11.49C46.4332 11.6072 46.3997 11.691 46.5169 11.7245C46.5839 11.7412 46.785 11.7412 46.7515 11.8418C46.718 11.9925 46.7347 12.0093 46.6342 12.1098C46.5839 12.16 46.6677 12.2773 46.6174 12.3443C46.5672 12.3946 46.4332 12.4448 46.5169 12.5286C46.7347 12.7464 46.3829 12.5286 46.3494 12.6291C46.3494 12.6626 46.2154 12.8469 46.2322 12.8636C46.2992 12.9306 46.3829 12.9641 46.4499 13.0311C46.4834 13.0647 46.6007 13.2154 46.4667 13.2657C46.3494 13.3327 46.2824 13.3327 46.3494 13.4667C46.3662 13.5002 46.4499 13.6677 46.5002 13.6677C46.6174 13.6677 46.7347 13.651 46.785 13.7515C46.785 13.7682 46.9357 13.986 46.8017 13.986C46.718 13.986 46.5337 13.9525 46.5002 14.0363C46.4667 14.0865 46.4499 14.2205 46.3997 14.3211C46.3494 14.4216 46.2824 14.5053 46.2322 14.6058C46.1819 14.7063 46.2154 14.8069 46.1819 14.9409C46.1651 15.0581 46.1651 15.1754 46.1651 15.2927C46.1651 15.4267 46.1986 15.5272 46.2322 15.6612C46.2489 15.7282 46.3159 15.8287 46.2824 15.9627C46.2322 16.147 46.1316 16.1303 46.0479 16.2978C45.9976 16.3648 46.0144 16.5323 45.8971 16.5826C45.6961 16.6831 45.7966 16.6998 45.7631 16.9009C45.7296 16.9846 45.7128 17.1186 45.7128 17.2527C45.7128 17.4369 45.5788 17.4369 45.5621 17.5207C45.5621 17.5374 45.5621 17.8055 45.5118 17.8222C45.4113 17.8725 45.3946 17.9395 45.3108 18.04C45.227 18.1238 45.1935 18.174 45.1433 18.2745C45.1098 18.3415 45.0595 18.4923 45.0093 18.5426C44.959 18.6096 44.892 18.7101 44.825 18.7771C44.758 18.8441 44.758 18.9278 44.691 19.0451C44.6575 19.0786 44.6407 19.1121 44.6072 19.1624ZM47.0697 13.9858C47.0697 13.8685 47.321 13.902 47.3545 13.8015C47.3713 13.7178 47.2037 13.7178 47.1367 13.6508C47.053 13.567 47.0362 13.5167 47.0697 13.4162C47.0865 13.3157 47.1367 13.2487 47.2372 13.2152C47.321 13.1985 47.3042 13.0477 47.3042 12.9639C47.3042 12.8299 47.2875 12.7629 47.3377 12.6791C47.3713 12.5786 47.4215 12.4614 47.4215 12.3441C47.4215 12.2603 47.6058 12.1598 47.6393 12.1263C47.7398 12.0258 47.7901 12.0258 47.7901 11.8415C47.7901 11.7243 47.5388 11.8415 47.4215 11.8415C47.3042 11.8415 47.1702 11.8415 47.0865 11.808C46.9357 11.7745 46.9692 11.8415 46.9692 12.0091C46.9692 12.1263 46.8184 12.1431 47.0362 12.1431C47.1367 12.1431 47.3042 11.9588 47.254 12.1766C47.2205 12.3274 47.1702 12.2771 47.0697 12.3609C46.986 12.4279 47.0027 12.4949 47.0027 12.5954C47.0027 12.7126 47.0697 12.7964 47.0697 12.9137C47.0697 13.0142 46.919 13.0309 46.8687 13.0812C46.8184 13.1315 46.9022 13.2822 46.9022 13.3827C46.9022 13.3995 46.9022 13.433 46.9022 13.5503C46.9022 13.701 46.9357 13.7345 47.0362 13.768C47.12 13.7848 47.053 13.9188 47.0697 13.9858ZM43.1633 25.605C43.232 25.6736 43.232 25.8796 43.232 26.0169C43.232 26.1542 43.232 26.2915 43.232 26.3602L42.9574 26.4975C42.8887 26.5661 42.8887 26.7034 42.9574 26.7721C43.026 26.9094 43.0947 26.9781 43.1633 26.9781C43.3006 27.0467 43.232 27.184 43.232 27.3214C43.232 27.4587 43.1633 27.5273 43.3006 27.596C43.3693 27.6646 43.3006 27.8706 43.3006 27.9392C43.3006 27.9392 43.232 28.0079 43.232 28.2139C43.232 28.3512 43.3693 28.4885 43.4379 28.6258C43.5066 28.6945 43.3693 28.6945 43.5752 28.8318C43.7812 28.9004 43.8499 28.9691 44.0558 28.9691C44.1245 28.9691 44.2618 28.7631 44.3305 28.6945C44.3991 28.6258 44.3991 28.5572 44.5364 28.4198C44.6051 28.3512 44.6737 28.2825 44.7424 28.2139C44.8797 28.0766 45.017 28.0079 45.0857 27.8706C45.1543 27.8019 45.223 27.8019 45.2916 27.6646C45.3603 27.5273 45.4289 27.5273 45.4976 27.39C45.4976 27.2527 45.6349 27.1154 45.6349 26.9781C45.7036 26.9094 45.7722 26.7721 45.8409 26.7035C45.8409 26.5661 45.9095 26.4288 45.9782 26.2915C45.9782 26.2229 46.1842 26.0856 46.1842 26.0169C46.3215 25.9482 46.3901 25.8796 46.4588 25.8109C46.5274 25.7423 46.5961 25.605 46.5961 25.5363C46.6648 25.4676 46.7334 25.399 46.7334 25.2617C46.7334 25.1244 46.7334 24.9871 46.8021 24.8497C46.8021 24.7811 47.008 24.6438 47.0767 24.5751C47.214 24.5065 47.214 24.3692 47.2827 24.3005C47.3513 24.1632 47.42 24.1632 47.4886 24.0259C47.4886 23.9572 47.5573 23.8886 47.6259 23.7512C47.6946 23.6826 47.6259 23.4766 47.6259 23.408C47.6259 23.2707 47.7632 23.202 47.8319 23.1333C47.8319 23.1333 47.9692 22.9274 47.9692 22.8587C48.0379 22.7901 47.9692 22.5841 47.9692 22.5154C47.9692 22.3781 48.0379 22.3095 47.9006 22.2408C47.8319 22.1722 47.6946 22.3095 47.6946 22.3781C47.5573 22.4468 47.4886 22.4468 47.42 22.5154C47.2827 22.6528 47.214 22.5841 47.1453 22.7901C47.0767 22.8587 47.008 22.9274 46.9394 22.996C46.8707 23.1333 46.8707 23.1334 46.7334 23.202C46.6648 23.202 46.4588 23.1333 46.3901 23.1333C46.2528 23.1333 46.1842 23.202 46.0469 23.1333C45.9095 23.1333 45.9095 22.996 45.7722 23.0647C45.6349 23.1333 45.6349 23.1333 45.4976 22.996C45.4289 22.9274 45.223 22.996 45.1543 22.996C45.017 23.0647 44.9484 23.0647 44.8797 23.0647C44.7424 23.1333 44.6737 23.202 44.6051 23.2707C44.4678 23.3393 44.3991 23.4766 44.3991 23.5453C44.3991 23.6826 44.3991 23.8199 44.3305 23.8886C44.2618 24.0259 44.2618 24.0259 44.1931 24.1632C44.1245 24.2318 44.0558 24.3691 44.0558 24.4378C43.9872 24.5065 43.9872 24.5751 43.9185 24.7124C43.9185 24.7811 43.7812 24.8497 43.7812 24.9184C43.7126 25.0557 43.6439 25.1244 43.6439 25.193C43.6439 25.2617 43.5066 25.3303 43.4379 25.399C43.3006 25.5363 43.3006 25.3303 43.1633 25.605Z" stroke="#ED2488" stroke-width="0.3"/>
</g>
<defs>
<filter id="filter0_d_218_1579" x="0.849121" y="0.850098" width="49.3008" height="53.4885" filterUnits="userSpaceOnUse" color-interpolation-filters="sRGB">
<feFlood flood-opacity="0" result="BackgroundImageFix"/>
<feColorMatrix in="SourceAlpha" type="matrix" values="0 0 0 0 0 0 0 0 0 0 0 0 0 0 0 0 0 0 127 0" result="hardAlpha"/>
<feOffset/>
<feGaussianBlur stdDeviation="1"/>
<feComposite in2="hardAlpha" operator="out"/>
<feColorMatrix type="matrix" values="0 0 0 0 0 0 0 0 0 0 0 0 0 0 0 0 0 0 0.1 0"/>
<feBlend mode="normal" in2="BackgroundImageFix" result="effect1_dropShadow_218_1579"/>
<feBlend mode="normal" in="SourceGraphic" in2="effect1_dropShadow_218_1579" result="shape"/>
</filter>
</defs>
</svg>
