<svg width="60" height="33" viewBox="0 0 60 33" fill="none" xmlns="http://www.w3.org/2000/svg">
<path fill-rule="evenodd" clip-rule="evenodd" d="M28.3143 29.3773C28.1407 29.197 28.1407 28.9048 28.3143 28.7245L28.6732 28.3518C28.8467 28.1716 29.1282 28.1716 29.3017 28.3518L29.9749 29.0509C29.9749 29.0509 29.9749 29.0509 29.9749 29.0509L30.6481 28.3518C30.8217 28.1716 31.1031 28.1716 31.2766 28.3518L31.6356 28.7245C31.8091 28.9048 31.8091 29.197 31.6356 29.3772L30.9624 30.0763L30.2892 30.7754C30.1156 30.9556 29.8342 30.9556 29.6606 30.7754L28.9875 30.0763L28.3143 29.3773Z" fill="white"/>
<path fill-rule="evenodd" clip-rule="evenodd" d="M28.3143 30.6228C28.1407 30.803 28.1407 31.0952 28.3143 31.2755L28.6732 31.6482C28.8467 31.8284 29.1282 31.8284 29.3017 31.6482L29.9749 30.9491C29.9749 30.9491 29.9749 30.9491 29.9749 30.9491L30.6481 31.6482C30.8217 31.8284 31.1031 31.8284 31.2766 31.6482L31.6356 31.2755C31.8091 31.0952 31.8091 30.803 31.6356 30.6228L30.9624 29.9237L30.2892 29.2246C30.1156 29.0444 29.8342 29.0444 29.6606 29.2246L28.9875 29.9237C28.9875 29.9237 28.9875 29.9237 28.9875 29.9237L28.3143 30.6228Z" fill="white"/>
<path d="M1.23459 17.81C0.767071 17.3165 1.11926 16.5067 1.80141 16.5067H15.3809C15.5855 16.5067 15.7819 16.5867 15.9275 16.7294L27.0344 27.6128C27.5301 28.0985 27.1839 28.9368 26.4879 28.9368H12.1114C11.8968 28.9368 11.6917 28.8487 11.5446 28.6934L1.23459 17.81Z" fill="white"/>
<path d="M17.3682 1.96501C17.3682 1.28012 18.1981 0.933263 18.6909 1.41221L28.8847 11.3204C29.0344 11.4658 29.1188 11.6651 29.1188 11.8732L29.1187 25.6486C29.1187 26.3375 28.2802 26.6826 27.7899 26.1954L17.5962 16.0678C17.4502 15.9227 17.3682 15.726 17.3682 15.5209L17.3682 1.96501Z" fill="white"/>
<path d="M42.3795 1.97849C42.3795 1.2936 41.5496 0.946752 41.0568 1.4257L30.8629 11.3338C30.7133 11.4793 30.6289 11.6786 30.6289 11.8866L30.629 25.6621C30.629 26.351 31.4674 26.6961 31.9577 26.2089L42.1515 16.0812C42.2974 15.9362 42.3794 15.7395 42.3794 15.5344L42.3795 1.97849Z" fill="white"/>
<path d="M32.8488 27.6334C32.3813 28.127 32.7335 28.9368 33.4157 28.9368H46.9952C47.1998 28.9368 47.3961 28.8567 47.5418 28.714L58.6487 17.8306C59.1443 17.3449 58.7982 16.5067 58.1021 16.5067H43.7257C43.5111 16.5067 43.306 16.5947 43.1589 16.75L32.8488 27.6334Z" fill="white"/>
<path fill-rule="evenodd" clip-rule="evenodd" d="M10.9593 14.3467C10.8876 14.3467 10.8296 14.289 10.8296 14.2178V12.3037C10.8296 12.2325 10.8876 12.1748 10.9593 12.1748H12.8859C12.9576 12.1748 13.0157 12.117 13.0157 12.0459V10.1317C13.0157 10.0605 13.0738 10.0028 13.1454 10.0028H15.0721C15.1437 10.0028 15.2018 10.0605 15.2018 10.1317V12.1748V14.2178C15.2018 14.289 15.1437 14.3467 15.0721 14.3467H13.0157H10.9593Z" fill="white"/>
<path fill-rule="evenodd" clip-rule="evenodd" d="M48.9993 14.3972C49.0709 14.3972 49.129 14.3395 49.129 14.2683V12.3541C49.129 12.283 49.0709 12.2253 48.9993 12.2253H47.0726C47.001 12.2253 46.9429 12.1676 46.9429 12.0964V10.1822C46.9429 10.111 46.8849 10.0533 46.8132 10.0533H44.8866C44.8149 10.0533 44.7568 10.111 44.7568 10.1822V12.2253V14.2683C44.7568 14.3395 44.8149 14.3972 44.8866 14.3972H46.9429H48.9993Z" fill="white"/>
<path fill-rule="evenodd" clip-rule="evenodd" d="M26.8629 5.96953C26.8123 5.9192 26.8123 5.83759 26.8629 5.78726L28.2253 4.43375C28.276 4.38341 28.3581 4.38341 28.4087 4.43375L29.7038 5.72043C29.7545 5.77076 29.8366 5.77076 29.8873 5.72043L31.1824 4.43375C31.233 4.38341 31.3151 4.38341 31.3658 4.43375L32.7282 5.78726C32.7788 5.83759 32.7788 5.9192 32.7282 5.96953L31.3413 7.34733C31.3414 7.34733 31.3414 7.34733 31.3413 7.34733L29.8873 8.79199C29.8367 8.84232 29.7545 8.84232 29.7038 8.79199L28.317 7.41416L26.8629 5.96953Z" fill="white"/>
</svg>
